<?xml version="1.0" encoding="utf-8"?>
<!-- Generator: Adobe Illustrator 24.1.0, SVG Export Plug-In . SVG Version: 6.00 Build 0)  -->
<svg version="1.1" id="Capa_1" xmlns="http://www.w3.org/2000/svg" xmlns:xlink="http://www.w3.org/1999/xlink" x="0px" y="0px"
	 viewBox="0 0 1920 1080" style="enable-background:new 0 0 1920 1080;" xml:space="preserve">
<style type="text/css">
	.st0{fill:url(#SVGID_1_);}
	.st1{fill:#FFFFFF;stroke:#000000;stroke-miterlimit:10;}
	.st2{fill:url(#SVGID_2_);}
</style>
<g>
	
		<linearGradient id="SVGID_1_" gradientUnits="userSpaceOnUse" x1="935.0753" y1="-4.1214" x2="930.2947" y2="510.3084" gradientTransform="matrix(-1.346898e-10 1 1 1.346898e-10 28 -394)">
		<stop  offset="0" style="stop-color:#6D133C"/>
		<stop  offset="0.4893" style="stop-color:#143D84"/>
	</linearGradient>
	<path class="st0" d="M502.5,0L55.8,0v32.3h390.8v33h-55.8v33h-335v32.3h223.3v33h111.7v33H167.5v32.3h111.7v33H111.7v33H335V327
		h55.8v33h167.5v33H279.2v32.3h-55.8v32.6l0,0v32.6h335v33H390.8v32.3H111.7v33h279.2v33H279.2V654H55.8v33h502.5v33H0l0,33h446.7
		v32.7l0,0v32.6h-335v32.3H0l0,33h390.8v33H223.3v32.3h-55.8v33h279.2v33H335v32.3h-55.8v33H0l0-32.7l0,0l0-32.8l0,0l0-32.7l0,0
		l0-32.7l0,0l0-32.8l0,0l0-32.7l0,0l0-32.8l0,0l0-32.7l0,0l0-32.7l0,0l0-32.8l0,0L0,720l0,0l0-32.7l0,0l0-32.8l0,0l0-32.7l0,0
		l0-32.7l0,0l0-32.8l0,0l0-32.7l0,0l0-32.8l0,0l0-32.7l0,0l0-32.7l0,0l0-32.8l0,0L0,360l0,0l0-32.7l0,0l0-32.8l0,0l0-32.7l0,0
		l0-32.7l0,0l0-32.8l0,0l0-32.7l0,0l0-32.8l0,0l0-32.7l0,0l0-32.7l0,0l0-32.8l0,0L0,0l0,0L502.5,0z"/>
	<path class="st1" d="M670,739.4"/>
</g>
<g>
	
		<linearGradient id="SVGID_2_" gradientUnits="userSpaceOnUse" x1="848.2601" y1="1148.7666" x2="843.4681" y2="1664.4374" gradientTransform="matrix(4.489659e-11 -1 -1 -4.489659e-11 3044.8181 1387.1818)">
		<stop  offset="0" style="stop-color:#6D133C"/>
		<stop  offset="0.4893" style="stop-color:#143D84"/>
	</linearGradient>
	<path class="st2" d="M1416.3,1080H1864v-33h-391.8v-32.2h56v-33H1864v-33h-223.9v-33h-111.9v-32.3h223.9v-33h-111.9v-33h167.9
		v-32.3h-223.9V753h-56v-33h-167.9v-33h279.8v-33h56v-32.6l0,0v-32.6h-335.8v-33h167.9v-32.3h279.8v-33h-279.8v-32.3h111.9v-33H1864
		v-33h-503.7V360H1920v-33h-447.8v-32.7l0,0v-32.6h335.8v-33H1920v-33h-391.8v-32.3h167.9v-33h56v-33h-279.8V65.2h111.9V33h56V0
		L1920,0v32.7l0,0v32.8l0,0v32.7l0,0v32.7l0,0v32.8l0,0v32.7l0,0v32.8l0,0v32.7l0,0v32.7l0,0v32.8l0,0V360l0,0v32.7l0,0v32.8l0,0
		v32.7l0,0v32.7l0,0v32.8l0,0v32.7l0,0v32.8l0,0v32.7l0,0v32.7l0,0v32.8l0,0V720l0,0v32.7l0,0v32.8l0,0v32.7l0,0v32.7l0,0v32.8l0,0
		v32.7l0,0v32.8l0,0v32.7l0,0v32.7l0,0v32.8l0,0v32.7l0,0H1416.3z"/>
	<path class="st1" d="M1249,340.3"/>
</g>
</svg>
