<?xml version="1.0" encoding="utf-8"?>
<!-- Generator: Adobe Illustrator 24.1.0, SVG Export Plug-In . SVG Version: 6.00 Build 0)  -->
<svg version="1.1" id="Capa_1" xmlns="http://www.w3.org/2000/svg" xmlns:xlink="http://www.w3.org/1999/xlink" x="0px" y="0px"
	 viewBox="0 0 640 480" style="enable-background:new 0 0 640 480;" xml:space="preserve">
<style type="text/css">
	.st0{fill:#FFCCB6;}
	.st1{fill:#FFCAB3;}
	.st2{fill:url(#SVGID_1_);}
</style>
<rect x="392.34" y="1.44" class="st0" width="107.27" height="83.28"/>
<rect x="415.9" y="128.93" class="st1" width="19.84" height="20.5"/>
<rect x="446.29" y="194.27" class="st1" width="39.07" height="40.36"/>
<rect x="470.47" y="139.18" class="st1" width="29.14" height="30.11"/>
<rect x="485.35" y="277.56" class="st1" width="58.29" height="60.22"/>
<rect x="412.18" y="365.97" class="st1" width="34.1" height="35.24"/>
<rect x="466.13" y="430.03" class="st1" width="48.37" height="49.97"/>
<rect x="379.32" y="259.62" class="st1" width="25.42" height="26.27"/>
<rect x="392.34" y="209.01" class="st1" width="37.2" height="38.44"/>
<rect x="441.95" y="315.36" class="st1" width="15.5" height="16.02"/>
<rect x="435.74" y="98.18" class="st1" width="24.8" height="25.63"/>
<rect x="499.61" y="220.54" class="st1" width="22.32" height="23.06"/>
<rect x="352.03" y="139.18" class="st1" width="20.46" height="21.14"/>
<rect x="362.57" y="71.91" class="st1" width="21.08" height="21.78"/>
<rect x="362.57" y="25.15" class="st1" width="13.64" height="14.09"/>
<rect x="308.63" y="93.69" class="st1" width="19.84" height="20.5"/>
<rect x="346.45" y="194.27" class="st1" width="16.12" height="16.66"/>
<rect x="392.34" y="169.29" class="st1" width="19.84" height="20.5"/>
<rect x="346.45" y="315.36" class="st1" width="21.7" height="22.42"/>
<rect x="354.51" y="417.86" class="st1" width="21.7" height="22.42"/>
<rect x="419.62" y="440.28" class="st1" width="14.26" height="14.73"/>
<rect x="446.29" y="272.43" class="st1" width="11.16" height="11.53"/>
<rect x="474.81" y="371.09" class="st1" width="10.54" height="10.89"/>
<rect x="402.26" y="323.68" class="st1" width="9.92" height="10.25"/>
<rect x="299.33" y="155.84" class="st1" width="9.3" height="9.61"/>
<rect x="299.33" y="194.27" class="st1" width="4.96" height="5.13"/>
<rect x="290.03" y="234.63" class="st1" width="18.6" height="19.22"/>
<rect x="265.22" y="77.68" class="st1" width="6.82" height="7.05"/>
<polygon class="st1" points="308.63,32.19 299.33,32.19 299.33,32.19 308.63,32.19 "/>
<rect x="314.21" y="55.26" class="st1" width="11.16" height="11.53"/>
<rect x="265.22" y="25.15" class="st1" width="9.3" height="9.61"/>
<rect x="301.81" y="20.66" class="st1" width="12.4" height="12.81"/>
<rect x="274.52" y="132.77" class="st1" width="11.78" height="12.17"/>
<rect x="335.91" y="247.45" class="st1" width="11.78" height="12.17"/>
<rect x="314.21" y="315.36" class="st1" width="11.16" height="11.53"/>
<rect x="354.51" y="118.68" class="st1" width="11.16" height="11.53"/>
<rect x="396.06" y="103.94" class="st1" width="9.92" height="10.25"/>
<rect x="304.29" y="341.62" class="st1" width="14.26" height="14.73"/>
<rect x="314.21" y="376.22" class="st1" width="11.16" height="11.53"/>
<rect x="360.09" y="365.97" class="st1" width="9.92" height="10.25"/>
<rect x="319.79" y="417.86" class="st1" width="11.16" height="11.53"/>
<rect x="352.03" y="460.14" class="st1" width="10.54" height="10.89"/>
<rect x="392.34" y="447.97" class="st1" width="14.88" height="15.38"/>
<rect x="392.34" y="395.44" class="st1" width="9.92" height="10.25"/>
<rect x="360.09" y="387.75" class="st1" width="9.3" height="9.61"/>
<rect x="246" y="179.54" class="st1" width="9.92" height="10.25"/>
<rect x="255.92" y="220.54" class="st1" width="9.3" height="14.09"/>
<rect x="260.88" y="272.43" class="st1" width="4.34" height="4.48"/>
<rect x="263.36" y="321.12" class="st1" width="7.44" height="7.69"/>
<linearGradient id="SVGID_1_" gradientUnits="userSpaceOnUse" x1="438.9953" y1="240.7211" x2="640" y2="240.7211">
	<stop  offset="0" style="stop-color:#FF481E"/>
	<stop  offset="1" style="stop-color:#FF931E"/>
</linearGradient>
<path class="st2" d="M442.06,1.44c-8.62,0.02,3.38,87.79,6.13,96.23c6.42,19.72,16.86,38.39,30.7,54.74
	c14.02,16.56,37.1,26.96,49.28,43.91c13.4,18.65,11.97,42.45,6.59,63.2c-4.86,18.72-13.11,37.54-24.06,54.1
	c0,0-58,114.65,28.2,166.37H640V1.44C640,1.44,442.93,1.44,442.06,1.44z"/>
</svg>
