<?xml version="1.0" encoding="utf-8"?>
<!-- Generator: Adobe Illustrator 24.1.0, SVG Export Plug-In . SVG Version: 6.00 Build 0)  -->
<svg version="1.1" id="Capa_1" xmlns="http://www.w3.org/2000/svg" xmlns:xlink="http://www.w3.org/1999/xlink" x="0px" y="0px"
	 viewBox="0 0 1000 1000" style="enable-background:new 0 0 1000 1000;" xml:space="preserve">
<style type="text/css">
	.st0{display:none;}
	.st1{display:inline;fill:none;stroke:#666666;stroke-miterlimit:10;}
	.st2{fill:none;stroke:#FFFFFF;stroke-width:15;stroke-miterlimit:10;}
	.st3{fill:#D3DEF4;}
</style>
<g id="Capa_1_1_" class="st0">
	<ellipse class="st1" cx="411.2" cy="361.5" rx="122.9" ry="134"/>
	<polygon class="st1" points="593.8,567.4 356.6,641.2 291.9,394.1 529.1,320.3 	"/>
	<rect x="342.5" y="588.5" class="st1" width="135" height="117"/>
	<rect x="477.5" y="527.5" class="st1" width="116" height="130"/>
	<rect x="565.5" y="460.5" class="st1" width="108" height="132"/>
</g>
<g id="Capa_2_1_">
	<path class="st2" d="M712.4,359.9c4.4,17.2,9.1,34.3,13.5,51.5c4.4,17.9,8.8,35.4,13.9,53.3c9.5,34.7,20.5,69,35.8,101.5
		c5.8,12.4,12.4,24.5,19.4,36.2c20.5,32.9,36.5,66.1,78.5,78.9c-13.5,1.1-29.2-2.2-42.7-4.4c-16.8-2.6-32.9-7.3-49.3-10.2
		c-13.1-2.6-29.2-4-40.5,4.4c-9.1,6.9-9.5,21.2-8,31c2.6,23.4,14.2,43.8,28.1,63.2c11.7,16.8,27.8,40.2,51.9,42.7
		c-27-2.9-54.1-7.3-80.7-12.8c-42.7-9.5-86.6-22.3-122.7-45.7c-8.8-5.5-16.4-12.1-23.4-19.4c-6.9-7.3-11.7-16.4-18.6-23.7
		c-2.6,9.5,0.7,21.5,0.7,31.4c-0.4,21.2,4,42.4,1.5,63.9c-1.1,10.6-4.4,21.9-10.6,31c-6.2,8.8-16.4,14.2-23.7,22.3
		c0,0-25.2-80.7-123.1-107.7c0,0-30.3,100.4,34,135.9c0,0-104.5-60.3-118.3-113.9c-20.8-81.8-47.8-162.2-72.7-242.9
		c-16.8-54.8-41.6-112.9-52.6-170.9c-8.4-45.3-8.4-90.6,10.2-134.8c26.3-62.1,84.4-110.7,147.5-131.8
		c84.7-28.5,181.5-7.3,245.4,55.1c42.4,41.3,67.6,92.4,86.2,147.5l-58.1-2.2c-6.6-57.7-43.8-95.7-79.3-95.7
		c-19,0-42.7,11.7-53.3,33.6c-13.1,27,1.1,57.7,15.3,81.4c15.7,25.2,34,47.8,61.7,61C623.3,389.8,671.5,380.7,712.4,359.9z"/>
	<path class="st3" d="M403.4,276.5L293.9,551.6c0,0,92,55.5,144.3-4.8C490.4,486.6,403.4,276.5,403.4,276.5z"/>
</g>
</svg>
