<?xml version="1.0" standalone="no"?>
<!DOCTYPE svg PUBLIC "-//W3C//DTD SVG 20010904//EN"
 "http://www.w3.org/TR/2001/REC-SVG-20010904/DTD/svg10.dtd">
<svg version="1.0" xmlns="http://www.w3.org/2000/svg"
 width="300.000000pt" height="300.000000pt" viewBox="0 0 300.000000 300.000000"
 preserveAspectRatio="xMidYMid meet">

<g transform="translate(0.000000,300.000000) scale(0.100000,-0.100000)"
fill="#FFFFFF" stroke="none">
<path d="M1010 2240 c0 -19 7 -20 238 -20 l237 0 103 -103 103 -103 -28 -54
c-24 -47 -28 -66 -28 -140 0 -63 5 -97 19 -128 l19 -43 -38 -39 -38 -39 -30
25 c-19 16 -39 24 -52 21 -14 -2 -27 3 -34 15 -17 27 -56 39 -86 28 -21 -8
-30 -6 -47 10 -12 11 -35 20 -52 20 -26 0 -49 -18 -142 -113 -112 -112 -112
-113 -138 -199 -31 -101 -59 -142 -90 -134 -18 4 -39 -12 -106 -79 l-85 -85
173 -172 172 -173 85 85 c67 67 83 88 79 106 -8 30 33 59 120 85 39 12 84 28
100 36 61 32 301 205 313 226 19 33 15 63 -9 91 -42 46 -65 43 -154 -22 -143
-105 -142 -98 12 57 144 146 151 152 176 141 28 -13 25 3 54 -252 l17 -148
194 0 c186 0 193 1 193 20 0 15 -7 20 -25 20 l-25 0 0 135 c0 128 -1 135 -20
135 -19 0 -20 -7 -20 -135 l0 -135 -30 0 -30 0 0 60 c0 53 -2 60 -20 60 -18 0
-20 -7 -20 -60 l0 -60 -30 0 -30 0 0 85 c0 78 -2 85 -20 85 -18 0 -20 -7 -20
-85 l0 -85 -29 0 c-33 0 -32 -3 -51 165 -6 50 -13 106 -16 126 l-5 36 69 1
c179 1 314 136 314 313 0 251 -278 394 -492 253 l-41 -27 -107 106 -107 107
-248 0 c-240 0 -247 -1 -247 -20z m1055 -178 c143 -73 192 -261 103 -393 -66
-97 -183 -142 -295 -113 -31 8 -59 17 -62 20 -3 2 4 14 15 25 19 18 25 19 67
8 73 -18 139 2 197 61 73 72 86 158 40 250 -37 72 -104 110 -193 110 -137 0
-230 -120 -204 -263 6 -34 5 -53 -4 -63 -18 -22 -29 -17 -45 21 -19 46 -18
130 3 190 21 62 93 136 154 158 60 23 170 17 224 -11z m-34 -95 c98 -66 114
-192 34 -272 -40 -39 -102 -60 -152 -50 l-34 6 40 44 c50 54 54 93 15 124 -38
30 -59 26 -108 -19 -24 -22 -46 -40 -50 -40 -10 0 -7 96 5 127 25 66 83 102
165 103 37 0 60 -6 85 -23z m-117 -190 c9 -14 -32 -60 -262 -290 -224 -224
-272 -277 -272 -300 0 -51 43 -35 190 73 123 90 137 98 155 86 11 -7 20 -24
20 -37 0 -20 -28 -43 -149 -127 -124 -85 -164 -107 -233 -128 -52 -16 -97 -37
-117 -55 -19 -16 -37 -29 -42 -29 -12 0 -234 222 -234 234 0 4 13 23 29 42 18
20 39 65 55 116 25 82 27 85 129 186 72 72 110 103 123 100 41 -8 27 -40 -56
-123 -72 -72 -79 -83 -65 -95 14 -11 30 1 124 94 77 76 113 105 125 100 36
-14 16 -49 -86 -151 -89 -89 -100 -104 -88 -118 12 -14 27 -3 135 105 90 89
126 119 138 114 38 -14 17 -49 -98 -164 -90 -90 -112 -117 -103 -128 9 -10 65
40 279 254 147 146 273 264 280 262 7 -2 17 -12 23 -21z m-854 -722 l145 -145
-23 -22 -22 -23 -103 103 c-92 92 -105 101 -117 87 -12 -14 -2 -28 83 -113 53
-54 97 -102 97 -108 0 -6 -8 -18 -18 -27 -17 -15 -27 -8 -165 131 -142 142
-147 149 -129 165 25 22 31 22 62 -8 24 -23 28 -24 40 -10 11 13 9 20 -15 45
-28 29 -28 30 -10 50 10 11 21 20 24 20 4 0 71 -65 151 -145z"/>
<path d="M1010 1990 l0 -170 245 0 245 0 0 170 0 170 -245 0 -245 0 0 -170z
m440 0 l0 -130 -200 0 -200 0 0 130 0 130 200 0 200 0 0 -130z"/>
<path d="M1110 2040 c0 -19 7 -20 145 -20 138 0 145 1 145 20 0 19 -7 20 -145
20 -138 0 -145 -1 -145 -20z"/>
<path d="M1110 1940 c0 -19 7 -20 145 -20 138 0 145 1 145 20 0 19 -7 20 -145
20 -138 0 -145 -1 -145 -20z"/>
</g>
</svg>
