<?xml version="1.0" encoding="utf-8"?>
<!-- Generator: Adobe Illustrator 24.1.0, SVG Export Plug-In . SVG Version: 6.00 Build 0)  -->
<svg version="1.1" id="Capa_1" xmlns="http://www.w3.org/2000/svg" xmlns:xlink="http://www.w3.org/1999/xlink" x="0px" y="0px"
	 viewBox="0 0 250 250" style="enable-background:new 0 0 250 250;" xml:space="preserve">
<style type="text/css">
	.st0{fill:#C4C4C4;}
	.st1{fill:url(#SVGID_1_);}
	.st2{fill:url(#SVGID_2_);}
	.st3{fill:#0C3572;}
	.st4{fill:url(#SVGID_3_);}
	.st5{fill:url(#SVGID_4_);}
	.st6{fill:#FFFFFF;}
	.st7{fill:url(#SVGID_5_);}
</style>
<g>
	<rect class="st0" width="250" height="250"/>
</g>
<linearGradient id="SVGID_1_" gradientUnits="userSpaceOnUse" x1="126.5" y1="41" x2="126.5" y2="177">
	<stop  offset="0" style="stop-color:#2E3192"/>
	<stop  offset="1" style="stop-color:#0C3572"/>
</linearGradient>
<ellipse class="st1" cx="126.5" cy="109" rx="68.5" ry="68"/>
<linearGradient id="SVGID_2_" gradientUnits="userSpaceOnUse" x1="126.5" y1="67" x2="126.5" y2="140">
	<stop  offset="0" style="stop-color:#FFFFFF"/>
	<stop  offset="1" style="stop-color:#A8A8A8"/>
</linearGradient>
<ellipse class="st2" cx="126.5" cy="103.5" rx="39.5" ry="36.5"/>
<ellipse cx="127.25" cy="102.72" rx="11.92" ry="12.43"/>
<ellipse class="st3" cx="98.52" cy="176.71" rx="22.52" ry="12.29"/>
<linearGradient id="SVGID_3_" gradientUnits="userSpaceOnUse" x1="68.6353" y1="113.9535" x2="19.6114" y2="113.9535" gradientTransform="matrix(0.9229 -0.3849 0.3849 0.9229 -36.7679 23.3015)">
	<stop  offset="0" style="stop-color:#2E3192"/>
	<stop  offset="0.4097" style="stop-color:#0C3572"/>
</linearGradient>
<path class="st4" d="M48.68,95.01c14.34,0.75,25.58,8.73,25.11,17.83s-12.48,15.87-26.82,15.13c-14.34-0.75-25.58-8.73-25.11-17.83
	C22.33,101.04,34.34,94.27,48.68,95.01z"/>
<ellipse class="st3" cx="164.97" cy="176.51" rx="22.52" ry="12.29"/>
<linearGradient id="SVGID_4_" gradientUnits="userSpaceOnUse" x1="125" y1="20" x2="125" y2="61">
	<stop  offset="0" style="stop-color:#F15A24"/>
	<stop  offset="0.5363" style="stop-color:#FFFFFF"/>
</linearGradient>
<path class="st5" d="M176,48.99C176,65,74,65,74,48.99S96.83,20,125,20S176,32.98,176,48.99z"/>
<circle class="st6" cx="130.5" cy="97.5" r="3.5"/>
<circle class="st0" cx="125.5" cy="108.5" r="2.5"/>
<linearGradient id="SVGID_5_" gradientUnits="userSpaceOnUse" x1="152.905" y1="154.5727" x2="103.881" y2="154.5727" gradientTransform="matrix(-0.966 -0.2585 0.2585 -0.966 287.0384 310.0225)">
	<stop  offset="0" style="stop-color:#2E3192"/>
	<stop  offset="0.4097" style="stop-color:#0C3572"/>
</linearGradient>
<path class="st7" d="M192.23,140.04c-10.9-9.34-14.93-22.53-9-29.45c5.93-6.92,19.58-4.95,30.48,4.39c10.9,9.34,14.93,22.53,9,29.45
	C216.78,151.35,203.13,149.39,192.23,140.04z"/>
</svg>
