<?xml version="1.0" standalone="no"?><svg xmlns="http://www.w3.org/2000/svg" viewBox="0 0 1440 320"><path fill="#ffffff" fill-opacity="1" d="M0,288L51.4,256L102.9,160L154.3,128L205.7,192L257.1,128L308.6,256L360,320L411.4,32L462.9,192L514.3,192L565.7,96L617.1,32L668.6,96L720,160L771.4,288L822.9,224L874.3,320L925.7,96L977.1,128L1028.6,160L1080,160L1131.4,96L1182.9,32L1234.3,32L1285.7,128L1337.1,96L1388.6,192L1440,320L1440,320L1388.6,320L1337.1,320L1285.7,320L1234.3,320L1182.9,320L1131.4,320L1080,320L1028.6,320L977.1,320L925.7,320L874.3,320L822.9,320L771.4,320L720,320L668.6,320L617.1,320L565.7,320L514.3,320L462.9,320L411.4,320L360,320L308.6,320L257.1,320L205.7,320L154.3,320L102.9,320L51.4,320L0,320Z"></path></svg>