<?xml version="1.0" encoding="utf-8"?>
<!-- Generator: Adobe Illustrator 24.1.0, SVG Export Plug-In . SVG Version: 6.00 Build 0)  -->
<svg version="1.1" xmlns="http://www.w3.org/2000/svg" xmlns:xlink="http://www.w3.org/1999/xlink" x="0px" y="0px"
	 viewBox="0 0 1366 768" style="enable-background:new 0 0 1366 768;" xml:space="preserve">
<style type="text/css">
	.st0{fill:#7C4111;}
	.st1{fill:#562A0A;}
	.st2{fill:#AA580E;}
	.st3{fill:#CE7013;}
	.st4{fill:#F48A16;}
</style>
<g id="Capa_1">
	<rect width="1366" height="768"/>
</g>
<g id="Capa_5">
	<rect x="23" y="162" class="st0" width="91" height="91"/>
	<rect x="385" y="42" class="st0" width="124" height="125"/>
	<rect x="338" y="105" class="st0" width="26" height="26"/>
	<rect x="312" y="405" class="st0" width="109" height="110"/>
	<rect x="175" y="612" class="st0" width="106" height="106"/>
	<rect y="682" class="st0" width="100" height="86"/>
	<rect x="545" y="546" class="st0" width="131" height="131"/>
	<rect x="655" y="440" class="st0" width="86" height="86"/>
	<rect x="877" y="248" class="st0" width="32" height="32"/>
	<rect x="764" y="286" class="st0" width="75" height="84"/>
	<rect x="839" y="617" class="st0" width="123" height="123"/>
	<rect x="1066" y="467" class="st0" width="130" height="130"/>
	<rect x="868" class="st0" width="88" height="88"/>
	<rect x="1307" y="384" class="st0" width="56" height="56"/>
	<rect x="718" y="537" class="st0" width="38" height="38"/>
	<rect x="741" y="712" class="st1" width="84" height="56"/>
	<rect x="662" y="152" class="st1" width="27" height="27"/>
	<rect x="539" y="91" class="st1" width="80" height="80"/>
	<rect x="971" y="82" class="st1" width="45" height="45"/>
	<rect x="272" y="167" class="st1" width="25" height="25"/>
	<rect x="447" y="405" class="st1" width="47" height="47"/>
	<rect x="279" y="717" class="st1" width="35" height="35"/>
	<rect x="38" y="452" class="st1" width="78" height="78"/>
	<rect x="11" y="597" class="st1" width="39" height="39"/>
	<rect x="926" y="515" class="st1" width="67" height="68"/>
	<rect x="281" y="226" class="st1" width="73" height="73"/>
	<rect x="721" y="362" class="st1" width="85" height="85"/>
	<rect x="847" y="216" class="st1" width="57" height="58"/>
	<rect x="1243" y="300" class="st1" width="112" height="112"/>
	<rect x="119" y="248" class="st1" width="100" height="100"/>
	<rect x="302" y="70" class="st1" width="73" height="73"/>
	<rect x="629" y="198" class="st1" width="83" height="83"/>
	<rect x="704" y="125" class="st1" width="67" height="67"/>
	<rect x="737" y="665" class="st1" width="75" height="75"/>
	<rect x="909" y="685" class="st1" width="78" height="79"/>
	<rect x="1014" y="563" class="st1" width="98" height="98"/>
	<rect x="1299" y="690" class="st1" width="67" height="78"/>
	<rect x="1184" y="537" class="st1" width="75" height="75"/>
	<rect x="546" y="317" class="st1" width="88" height="88"/>
	<rect x="634" y="395" class="st1" width="55" height="41"/>
	<rect x="463" y="460" class="st1" width="82" height="82"/>
	<rect x="1109" y="144" class="st1" width="70" height="70"/>
</g>
<g id="Capa_4">
	<rect x="175" y="9" class="st2" width="145" height="145"/>
	<rect x="91" y="317" class="st2" width="156" height="157"/>
	<rect x="204" y="201" class="st2" width="93" height="93"/>
	<rect x="230" y="492" class="st2" width="145" height="145"/>
	<rect x="121" y="578" class="st2" width="77" height="77"/>
	<rect x="11" y="395" class="st2" width="49" height="49"/>
	<rect x="514" y="362" class="st2" width="148" height="148"/>
	<rect x="393" y="444" class="st2" width="57" height="57"/>
	<rect x="541" y="655" class="st2" width="129" height="113"/>
	<rect x="825" y="317" class="st2" width="175" height="175"/>
	<rect x="1066" y="655" class="st2" width="155" height="113"/>
	<rect x="1254" y="480" class="st2" width="112" height="112"/>
	<rect x="1032" y="5" class="st2" width="132" height="132"/>
	<rect x="971" y="26" class="st2" width="33" height="33"/>
	<rect x="722" y="171" class="st2" width="109" height="109"/>
	<rect x="546" y="179" class="st2" width="121" height="121"/>
	<rect x="354" y="9" class="st2" width="61" height="61"/>
	<rect x="722" y="26" class="st2" width="109" height="89"/>
	<rect x="1243" y="151" class="st2" width="129" height="143"/>
	<rect x="825" y="655" class="st2" width="29" height="29"/>
</g>
<g id="Capa_3">
	<rect x="81" y="77" class="st3" width="149" height="149"/>
	<rect x="655" y="251" class="st3" width="133" height="133"/>
	<rect x="243" y="262" class="st3" width="150" height="150"/>
	<rect x="136" y="690" class="st3" width="78" height="78"/>
	<rect x="1191" y="578" class="st3" width="155" height="155"/>
	<rect x="750" y="480" class="st3" width="151" height="151"/>
	<rect x="318" y="601" class="st3" width="167" height="167"/>
	<rect x="916" y="141" class="st3" width="196" height="196"/>
	<rect y="480" class="st3" width="121" height="121"/>
	<rect x="464" class="st3" width="136" height="118"/>
	<rect x="1257" class="st3" width="115" height="115"/>
	<rect x="971" y="440" class="st3" width="123" height="123"/>
	<rect x="541" y="480" class="st3" width="60" height="60"/>
</g>
<g id="Capa_2">
	<rect class="st4" width="162" height="154"/>
	<rect x="338" y="154" class="st4" width="239" height="239"/>
	<rect x="1016" y="201" class="st4" width="296" height="323"/>
	<rect x="698" y="424" class="st4" width="85" height="85"/>
	<rect x="136" y="412" class="st4" width="136" height="136"/>
	<rect x="783" y="46" class="st4" width="155" height="155"/>
	<rect x="411" y="509" class="st4" width="166" height="166"/>
	<rect y="226" class="st4" width="136" height="136"/>
	<rect x="938" y="612" class="st4" width="156" height="156"/>
	<rect x="600" class="st4" width="141" height="141"/>
	<rect x="632" y="612" class="st4" width="144" height="145"/>
	<rect x="1137" y="26" class="st4" width="143" height="143"/>
	<rect x="38" y="631" class="st4" width="124" height="102"/>
</g>
</svg>
