<?xml version="1.0" standalone="no"?><svg xmlns="http://www.w3.org/2000/svg" viewBox="0 0 1440 320"><path fill="#0b142e" fill-opacity="1" d="M0,160L0,160L36.9,160L36.9,256L73.8,256L73.8,160L110.8,160L110.8,224L147.7,224L147.7,128L184.6,128L184.6,160L221.5,160L221.5,288L258.5,288L258.5,256L295.4,256L295.4,160L332.3,160L332.3,192L369.2,192L369.2,64L406.2,64L406.2,192L443.1,192L443.1,160L480,160L480,160L516.9,160L516.9,192L553.8,192L553.8,320L590.8,320L590.8,32L627.7,32L627.7,192L664.6,192L664.6,32L701.5,32L701.5,192L738.5,192L738.5,0L775.4,0L775.4,64L812.3,64L812.3,96L849.2,96L849.2,32L886.2,32L886.2,32L923.1,32L923.1,224L960,224L960,32L996.9,32L996.9,128L1033.8,128L1033.8,64L1070.8,64L1070.8,288L1107.7,288L1107.7,192L1144.6,192L1144.6,160L1181.5,160L1181.5,32L1218.5,32L1218.5,128L1255.4,128L1255.4,32L1292.3,32L1292.3,256L1329.2,256L1329.2,0L1366.2,0L1366.2,128L1403.1,128L1403.1,224L1440,224L1440,320L1403.1,320L1403.1,320L1366.2,320L1366.2,320L1329.2,320L1329.2,320L1292.3,320L1292.3,320L1255.4,320L1255.4,320L1218.5,320L1218.5,320L1181.5,320L1181.5,320L1144.6,320L1144.6,320L1107.7,320L1107.7,320L1070.8,320L1070.8,320L1033.8,320L1033.8,320L996.9,320L996.9,320L960,320L960,320L923.1,320L923.1,320L886.2,320L886.2,320L849.2,320L849.2,320L812.3,320L812.3,320L775.4,320L775.4,320L738.5,320L738.5,320L701.5,320L701.5,320L664.6,320L664.6,320L627.7,320L627.7,320L590.8,320L590.8,320L553.8,320L553.8,320L516.9,320L516.9,320L480,320L480,320L443.1,320L443.1,320L406.2,320L406.2,320L369.2,320L369.2,320L332.3,320L332.3,320L295.4,320L295.4,320L258.5,320L258.5,320L221.5,320L221.5,320L184.6,320L184.6,320L147.7,320L147.7,320L110.8,320L110.8,320L73.8,320L73.8,320L36.9,320L36.9,320L0,320L0,320Z"></path></svg>