<?xml version="1.0" encoding="utf-8"?>
<!-- Generator: Adobe Illustrator 24.1.0, SVG Export Plug-In . SVG Version: 6.00 Build 0)  -->
<svg version="1.1" xmlns="http://www.w3.org/2000/svg" xmlns:xlink="http://www.w3.org/1999/xlink" x="0px" y="0px"
	 viewBox="0 0 1366 768" style="enable-background:new 0 0 1366 768;" xml:space="preserve">
<style type="text/css">
	.st0{fill:#FFCCB6;}
	.st1{fill:#FFCAB3;}
	.st2{fill:url(#SVGID_1_);}
</style>
<g id="Capa_2">
	<rect x="795.41" class="st0" width="282.53" height="133.65"/>
	<rect x="857.47" y="204.59" class="st1" width="52.26" height="32.9"/>
	<rect x="937.49" y="309.46" class="st1" width="102.89" height="64.77"/>
	<rect x="1001.19" y="221.04" class="st1" width="76.76" height="48.32"/>
	<rect x="1040.38" y="443.12" class="st1" width="153.51" height="96.64"/>
	<rect x="847.67" y="585" class="st1" width="89.82" height="56.55"/>
	<rect x="989.75" y="687.81" class="st1" width="127.38" height="80.19"/>
	<rect x="761.12" y="414.33" class="st1" width="66.96" height="42.15"/>
	<rect x="795.41" y="333.11" class="st1" width="97.99" height="61.69"/>
	<rect x="926.06" y="503.78" class="st1" width="40.83" height="25.7"/>
	<rect x="909.73" y="155.24" class="st1" width="65.32" height="41.12"/>
	<rect x="1077.94" y="351.61" class="st1" width="58.79" height="37.01"/>
	<rect x="689.26" y="221.04" class="st1" width="53.89" height="33.93"/>
	<rect x="717.02" y="113.09" class="st1" width="55.53" height="34.96"/>
	<rect x="717.02" y="38.04" class="st1" width="35.93" height="22.62"/>
	<rect x="574.94" y="148.05" class="st1" width="52.26" height="32.9"/>
	<rect x="674.56" y="309.46" class="st1" width="42.46" height="26.73"/>
	<rect x="795.41" y="269.37" class="st1" width="52.26" height="32.9"/>
	<rect x="674.56" y="503.78" class="st1" width="57.16" height="35.98"/>
	<rect x="695.79" y="668.27" class="st1" width="57.16" height="35.98"/>
	<rect x="867.27" y="704.26" class="st1" width="37.56" height="23.65"/>
	<rect x="937.49" y="434.89" class="st1" width="29.4" height="18.51"/>
	<rect x="1012.62" y="593.22" class="st1" width="27.76" height="17.48"/>
	<rect x="821.54" y="517.14" class="st1" width="26.13" height="16.45"/>
	<rect x="550.45" y="247.78" class="st1" width="24.5" height="15.42"/>
	<rect x="550.45" y="309.46" class="st1" width="13.06" height="8.22"/>
	<rect x="525.95" y="374.23" class="st1" width="48.99" height="30.84"/>
	<rect x="460.63" y="122.35" class="st1" width="17.96" height="11.31"/>
	<polygon class="st1" points="574.94,49.35 550.45,49.35 550.45,49.35 574.94,49.35 	"/>
	<rect x="589.64" y="86.36" class="st1" width="29.4" height="18.51"/>
	<rect x="460.63" y="38.04" class="st1" width="24.5" height="15.42"/>
	<rect x="556.98" y="30.84" class="st1" width="32.66" height="20.56"/>
	<rect x="485.12" y="210.76" class="st1" width="31.03" height="19.53"/>
	<rect x="646.8" y="394.8" class="st1" width="31.03" height="19.53"/>
	<rect x="589.64" y="503.78" class="st1" width="29.4" height="18.51"/>
	<rect x="695.79" y="188.14" class="st1" width="29.4" height="18.51"/>
	<rect x="805.21" y="164.5" class="st1" width="26.13" height="16.45"/>
	<rect x="563.51" y="545.93" class="st1" width="37.56" height="23.65"/>
	<rect x="589.64" y="601.45" class="st1" width="29.4" height="18.51"/>
	<rect x="710.49" y="585" class="st1" width="26.13" height="16.45"/>
	<rect x="604.34" y="668.27" class="st1" width="29.4" height="18.51"/>
	<rect x="689.26" y="736.13" class="st1" width="27.76" height="17.48"/>
	<rect x="795.41" y="716.59" class="st1" width="39.19" height="24.67"/>
	<rect x="795.41" y="632.29" class="st1" width="26.13" height="16.45"/>
	<rect x="710.49" y="619.95" class="st1" width="24.5" height="15.42"/>
	<rect x="410" y="285.82" class="st1" width="26.13" height="16.45"/>
	<rect x="436.13" y="351.61" class="st1" width="24.5" height="22.62"/>
	<rect x="449.19" y="434.89" class="st1" width="11.43" height="7.2"/>
	<rect x="455.73" y="513.03" class="st1" width="19.6" height="12.34"/>
</g>
<g id="Capa_1">
	<linearGradient id="SVGID_1_" gradientUnits="userSpaceOnUse" x1="1006.9958" y1="384" x2="1366" y2="384">
		<stop  offset="0" style="stop-color:#FF481E"/>
		<stop  offset="1" style="stop-color:#FF931E"/>
	</linearGradient>
	<path class="st2" d="M1012.48,0c-15.4,0.03,6.03,140.88,10.95,154.43c11.47,31.64,30.12,61.6,54.84,87.85
		c25.04,26.58,66.26,43.26,88.02,70.47c23.94,29.93,21.38,68.13,11.76,101.42c-8.68,30.04-23.42,60.25-42.98,86.83
		c0,0-103.59,184,50.37,267H1366V0C1366,0,1014.02,0,1012.48,0z"/>
</g>
</svg>
