<?xml version="1.0" encoding="utf-8"?>
<!-- Generator: Adobe Illustrator 24.1.0, SVG Export Plug-In . SVG Version: 6.00 Build 0)  -->
<svg version="1.1" xmlns="http://www.w3.org/2000/svg" xmlns:xlink="http://www.w3.org/1999/xlink" x="0px" y="0px"
	 viewBox="0 0 1366 768" style="enable-background:new 0 0 1366 768;" xml:space="preserve">
<style type="text/css">
	.st0{fill:#FFCCB6;}
	.st1{fill:#FFCAB3;}
	.st2{fill:url(#SVGID_1_);}
</style>
<g id="Capa_2">
	<rect x="941.64" class="st0" width="210.12" height="133.65"/>
	<rect x="987.8" y="204.59" class="st1" width="38.87" height="32.9"/>
	<rect x="1047.31" y="309.46" class="st1" width="76.52" height="64.77"/>
	<rect x="1094.68" y="221.04" class="st1" width="57.09" height="48.32"/>
	<rect x="1123.83" y="443.12" class="st1" width="114.17" height="96.64"/>
	<rect x="980.51" y="585" class="st1" width="66.8" height="56.55"/>
	<rect x="1086.18" y="687.81" class="st1" width="94.74" height="80.19"/>
	<rect x="916.14" y="414.33" class="st1" width="49.8" height="42.15"/>
	<rect x="941.64" y="333.11" class="st1" width="72.88" height="61.69"/>
	<rect x="1038.81" y="503.78" class="st1" width="30.36" height="25.7"/>
	<rect x="1026.66" y="155.24" class="st1" width="48.58" height="41.12"/>
	<rect x="1151.76" y="351.61" class="st1" width="43.72" height="37.01"/>
	<rect x="862.69" y="221.04" class="st1" width="40.08" height="33.93"/>
	<rect x="883.34" y="113.09" class="st1" width="41.3" height="34.96"/>
	<rect x="883.34" y="38.04" class="st1" width="26.72" height="22.62"/>
	<rect x="777.67" y="148.05" class="st1" width="38.87" height="32.9"/>
	<rect x="851.76" y="309.46" class="st1" width="31.58" height="26.73"/>
	<rect x="941.64" y="269.37" class="st1" width="38.87" height="32.9"/>
	<rect x="851.76" y="503.78" class="st1" width="42.51" height="35.98"/>
	<rect x="867.55" y="668.27" class="st1" width="42.51" height="35.98"/>
	<rect x="995.08" y="704.26" class="st1" width="27.94" height="23.65"/>
	<rect x="1047.31" y="434.89" class="st1" width="21.86" height="18.51"/>
	<rect x="1103.18" y="593.22" class="st1" width="20.65" height="17.48"/>
	<rect x="961.08" y="517.14" class="st1" width="19.43" height="16.45"/>
	<rect x="759.45" y="247.78" class="st1" width="18.22" height="15.42"/>
	<rect x="759.45" y="309.46" class="st1" width="9.72" height="8.22"/>
	<rect x="741.24" y="374.23" class="st1" width="36.44" height="30.84"/>
	<rect x="692.65" y="122.35" class="st1" width="13.36" height="11.31"/>
	<polygon class="st1" points="777.67,49.35 759.45,49.35 759.45,49.35 777.67,49.35 	"/>
	<rect x="788.6" y="86.36" class="st1" width="21.86" height="18.51"/>
	<rect x="692.65" y="38.04" class="st1" width="18.22" height="15.42"/>
	<rect x="764.31" y="30.84" class="st1" width="24.29" height="20.56"/>
	<rect x="710.87" y="210.76" class="st1" width="23.08" height="19.53"/>
	<rect x="831.11" y="394.8" class="st1" width="23.08" height="19.53"/>
	<rect x="788.6" y="503.78" class="st1" width="21.86" height="18.51"/>
	<rect x="867.55" y="188.14" class="st1" width="21.86" height="18.51"/>
	<rect x="948.93" y="164.5" class="st1" width="19.43" height="16.45"/>
	<rect x="769.17" y="545.93" class="st1" width="27.94" height="23.65"/>
	<rect x="788.6" y="601.45" class="st1" width="21.86" height="18.51"/>
	<rect x="878.48" y="585" class="st1" width="19.43" height="16.45"/>
	<rect x="799.54" y="668.27" class="st1" width="21.86" height="18.51"/>
	<rect x="862.69" y="736.13" class="st1" width="20.65" height="17.48"/>
	<rect x="941.64" y="716.59" class="st1" width="29.15" height="24.67"/>
	<rect x="941.64" y="632.29" class="st1" width="19.43" height="16.45"/>
	<rect x="878.48" y="619.95" class="st1" width="18.22" height="15.42"/>
	<rect x="655" y="285.82" class="st1" width="19.43" height="16.45"/>
	<rect x="674.43" y="351.61" class="st1" width="18.22" height="22.62"/>
	<rect x="684.15" y="434.89" class="st1" width="8.5" height="7.2"/>
	<rect x="689.01" y="513.03" class="st1" width="14.57" height="12.34"/>
</g>
<g id="Capa_1">
	<linearGradient id="SVGID_1_" gradientUnits="userSpaceOnUse" x1="1099" y1="384" x2="1366" y2="384">
		<stop  offset="0" style="stop-color:#FF481E"/>
		<stop  offset="1" style="stop-color:#FF931E"/>
	</linearGradient>
	<path class="st2" d="M1103.08,0c-11.45,0.03,4.49,140.88,8.14,154.43c8.53,31.64,22.4,61.6,40.79,87.85
		c18.62,26.58,49.28,43.26,65.46,70.47c17.8,29.93,15.9,68.13,8.75,101.42c-6.45,30.04-17.42,60.25-31.96,86.83
		c0,0-77.04,184,37.46,267H1366V0C1366,0,1104.23,0,1103.08,0z"/>
</g>
</svg>
