<?xml version="1.0" encoding="utf-8"?>
<!-- Generator: Adobe Illustrator 24.1.0, SVG Export Plug-In . SVG Version: 6.00 Build 0)  -->
<svg version="1.1" id="Capa_1" xmlns="http://www.w3.org/2000/svg" xmlns:xlink="http://www.w3.org/1999/xlink" x="0px" y="0px"
	 viewBox="0 0 960 560" style="enable-background:new 0 0 960 560;" xml:space="preserve">
<style type="text/css">
	.st0{fill:#FFCCB6;}
	.st1{fill:#FFCAB3;}
	.st2{fill:url(#SVGID_1_);}
</style>
<rect x="635.65" class="st0" width="140.49" height="97.46"/>
<rect x="666.51" y="149.18" class="st1" width="25.99" height="23.99"/>
<rect x="706.3" y="225.65" class="st1" width="51.16" height="47.23"/>
<rect x="737.97" y="161.18" class="st1" width="38.17" height="35.23"/>
<rect x="757.46" y="323.11" class="st1" width="76.34" height="70.47"/>
<rect x="661.64" y="426.56" class="st1" width="44.66" height="41.23"/>
<rect x="732.29" y="501.53" class="st1" width="63.34" height="58.47"/>
<rect x="618.6" y="302.12" class="st1" width="33.3" height="30.74"/>
<rect x="635.65" y="242.89" class="st1" width="48.73" height="44.98"/>
<rect x="700.62" y="367.34" class="st1" width="20.3" height="18.74"/>
<rect x="692.5" y="113.2" class="st1" width="32.48" height="29.99"/>
<rect x="776.14" y="256.39" class="st1" width="29.24" height="26.99"/>
<rect x="582.87" y="161.18" class="st1" width="26.8" height="24.74"/>
<rect x="596.67" y="82.46" class="st1" width="27.61" height="25.49"/>
<rect x="596.67" y="27.74" class="st1" width="17.87" height="16.49"/>
<rect x="526.02" y="107.95" class="st1" width="25.99" height="23.99"/>
<rect x="575.56" y="225.65" class="st1" width="21.11" height="19.49"/>
<rect x="635.65" y="196.41" class="st1" width="25.99" height="23.99"/>
<rect x="575.56" y="367.34" class="st1" width="28.42" height="26.24"/>
<rect x="586.11" y="487.28" class="st1" width="28.42" height="26.24"/>
<rect x="671.38" y="513.52" class="st1" width="18.68" height="17.24"/>
<rect x="706.3" y="317.11" class="st1" width="14.62" height="13.49"/>
<rect x="743.66" y="432.56" class="st1" width="13.81" height="12.74"/>
<rect x="648.65" y="377.08" class="st1" width="12.99" height="11.99"/>
<rect x="513.84" y="180.67" class="st1" width="12.18" height="11.24"/>
<rect x="513.84" y="225.65" class="st1" width="6.5" height="6"/>
<rect x="501.66" y="272.88" class="st1" width="24.36" height="22.49"/>
<rect x="469.17" y="89.21" class="st1" width="8.93" height="8.25"/>
<polygon class="st1" points="526.02,35.98 513.84,35.98 513.84,35.98 526.02,35.98 "/>
<rect x="533.33" y="62.97" class="st1" width="14.62" height="13.49"/>
<rect x="469.17" y="27.74" class="st1" width="12.18" height="11.24"/>
<rect x="517.09" y="22.49" class="st1" width="16.24" height="14.99"/>
<rect x="481.36" y="153.68" class="st1" width="15.43" height="14.24"/>
<rect x="561.75" y="287.87" class="st1" width="15.43" height="14.24"/>
<rect x="533.33" y="367.34" class="st1" width="14.62" height="13.49"/>
<rect x="586.11" y="137.19" class="st1" width="14.62" height="13.49"/>
<rect x="640.52" y="119.95" class="st1" width="12.99" height="11.99"/>
<rect x="520.34" y="398.07" class="st1" width="18.68" height="17.24"/>
<rect x="533.33" y="438.55" class="st1" width="14.62" height="13.49"/>
<rect x="593.42" y="426.56" class="st1" width="12.99" height="11.99"/>
<rect x="540.64" y="487.28" class="st1" width="14.62" height="13.49"/>
<rect x="582.87" y="536.76" class="st1" width="13.81" height="12.74"/>
<rect x="635.65" y="522.52" class="st1" width="19.49" height="17.99"/>
<rect x="635.65" y="461.04" class="st1" width="12.99" height="11.99"/>
<rect x="593.42" y="452.05" class="st1" width="12.18" height="11.24"/>
<rect x="444" y="208.41" class="st1" width="12.99" height="11.99"/>
<rect x="456.99" y="256.39" class="st1" width="12.18" height="16.49"/>
<rect x="463.49" y="317.11" class="st1" width="5.68" height="5.25"/>
<rect x="466.74" y="374.08" class="st1" width="9.75" height="9"/>
<linearGradient id="SVGID_1_" gradientUnits="userSpaceOnUse" x1="696.7552" y1="280" x2="960" y2="280">
	<stop  offset="0" style="stop-color:#FF481E"/>
	<stop  offset="1" style="stop-color:#FF931E"/>
</linearGradient>
<path class="st2" d="M700.77,0c-11.29,0.02,4.42,102.73,8.03,112.61c8.41,23.07,22.09,44.92,40.21,64.05
	c18.36,19.38,48.59,31.54,64.54,51.38c17.55,21.83,15.68,49.67,8.63,73.95c-6.36,21.9-17.17,43.93-31.51,63.31
	c0,0-75.96,134.17,36.93,194.69H960V0C960,0,701.91,0,700.77,0z"/>
</svg>
