<?xml version="1.0" encoding="utf-8"?>
<!-- Generator: Adobe Illustrator 24.1.0, SVG Export Plug-In . SVG Version: 6.00 Build 0)  -->
<svg version="1.1" xmlns="http://www.w3.org/2000/svg" xmlns:xlink="http://www.w3.org/1999/xlink" x="0px" y="0px"
	 viewBox="0 0 250 250" style="enable-background:new 0 0 250 250;" xml:space="preserve">
<style type="text/css">
	.st0{fill:#E5E5E5;}
	.st1{fill:url(#SVGID_1_);}
	.st2{fill:url(#SVGID_2_);}
	.st3{fill:#0C3572;}
	.st4{fill:url(#SVGID_3_);}
	.st5{fill:#FFFFFF;}
	.st6{fill:url(#SVGID_4_);}
</style>
<g id="Capa_2">
	<rect class="st0" width="250" height="250"/>
</g>
<g id="Capa_1">
	<linearGradient id="SVGID_1_" gradientUnits="userSpaceOnUse" x1="125.5" y1="52" x2="125.5" y2="188">
		<stop  offset="0" style="stop-color:#2E3192"/>
		<stop  offset="1" style="stop-color:#0C3572"/>
	</linearGradient>
	<ellipse class="st1" cx="125.5" cy="120" rx="68.5" ry="68"/>
	<linearGradient id="SVGID_2_" gradientUnits="userSpaceOnUse" x1="125.5" y1="78" x2="125.5" y2="157">
		<stop  offset="0" style="stop-color:#FFFFFF"/>
		<stop  offset="1" style="stop-color:#E6E6E6"/>
	</linearGradient>
	<circle class="st2" cx="125.5" cy="117.5" r="39.5"/>
	<ellipse cx="125.66" cy="117.15" rx="18.34" ry="17.85"/>
	<ellipse class="st3" cx="97.52" cy="187.71" rx="22.52" ry="12.29"/>
	
		<linearGradient id="SVGID_3_" gradientUnits="userSpaceOnUse" x1="63.4782" y1="123.721" x2="14.4542" y2="123.721" gradientTransform="matrix(0.9229 -0.3849 0.3849 0.9229 -36.7679 23.3015)">
		<stop  offset="0" style="stop-color:#2E3192"/>
		<stop  offset="0.4097" style="stop-color:#0C3572"/>
	</linearGradient>
	<path class="st4" d="M47.68,106.01c14.34,0.75,25.58,8.73,25.11,17.83s-12.48,15.87-26.82,15.13s-25.58-8.73-25.11-17.83
		C21.33,112.04,33.34,105.27,47.68,106.01z"/>
	<ellipse class="st3" cx="163.97" cy="187.51" rx="22.52" ry="12.29"/>
	<path class="st5" d="M175,59.99C175,76,73,76,73,59.99S95.83,31,124,31S175,43.98,175,59.99z"/>
	<ellipse class="st5" cx="130.67" cy="109.64" rx="5.38" ry="5.03"/>
	
		<linearGradient id="SVGID_4_" gradientUnits="userSpaceOnUse" x1="151.0274" y1="143.6881" x2="102.0034" y2="143.6881" gradientTransform="matrix(-0.966 -0.2585 0.2585 -0.966 287.0384 310.0225)">
		<stop  offset="0" style="stop-color:#2E3192"/>
		<stop  offset="0.4097" style="stop-color:#0C3572"/>
	</linearGradient>
	<path class="st6" d="M191.23,151.04c-10.9-9.34-14.93-22.53-9-29.45c5.93-6.92,19.58-4.95,30.48,4.39
		c10.9,9.34,14.93,22.53,9,29.45C215.78,162.35,202.13,160.39,191.23,151.04z"/>
</g>
</svg>
