<svg id="visual" viewBox="0 0 1920 1080" width="1920" height="1080" xmlns="http://www.w3.org/2000/svg" xmlns:xlink="http://www.w3.org/1999/xlink" version="1.1"><path d="M0 702L32 683.7C64 665.3 128 628.7 192 639.2C256 649.7 320 707.3 384 728.3C448 749.3 512 733.7 576 726.2C640 718.7 704 719.3 768 731.2C832 743 896 766 960 764C1024 762 1088 735 1152 718.3C1216 701.7 1280 695.3 1344 688.2C1408 681 1472 673 1536 681.2C1600 689.3 1664 713.7 1728 711.8C1792 710 1856 682 1888 668L1920 654L1920 1081L1888 1081C1856 1081 1792 1081 1728 1081C1664 1081 1600 1081 1536 1081C1472 1081 1408 1081 1344 1081C1280 1081 1216 1081 1152 1081C1088 1081 1024 1081 960 1081C896 1081 832 1081 768 1081C704 1081 640 1081 576 1081C512 1081 448 1081 384 1081C320 1081 256 1081 192 1081C128 1081 64 1081 32 1081L0 1081Z" fill="#94b2f1"></path><path d="M0 784L32 787.8C64 791.7 128 799.3 192 796.2C256 793 320 779 384 765.7C448 752.3 512 739.7 576 750.3C640 761 704 795 768 811C832 827 896 825 960 820.3C1024 815.7 1088 808.3 1152 803.7C1216 799 1280 797 1344 780.2C1408 763.3 1472 731.7 1536 712.7C1600 693.7 1664 687.3 1728 689.2C1792 691 1856 701 1888 706L1920 711L1920 1081L1888 1081C1856 1081 1792 1081 1728 1081C1664 1081 1600 1081 1536 1081C1472 1081 1408 1081 1344 1081C1280 1081 1216 1081 1152 1081C1088 1081 1024 1081 960 1081C896 1081 832 1081 768 1081C704 1081 640 1081 576 1081C512 1081 448 1081 384 1081C320 1081 256 1081 192 1081C128 1081 64 1081 32 1081L0 1081Z" fill="#abbff0"></path><path d="M0 802L32 811.7C64 821.3 128 840.7 192 834.7C256 828.7 320 797.3 384 789.3C448 781.3 512 796.7 576 805.5C640 814.3 704 816.7 768 816.2C832 815.7 896 812.3 960 810.8C1024 809.3 1088 809.7 1152 814.8C1216 820 1280 830 1344 821.7C1408 813.3 1472 786.7 1536 778.2C1600 769.7 1664 779.3 1728 799.3C1792 819.3 1856 849.7 1888 864.8L1920 880L1920 1081L1888 1081C1856 1081 1792 1081 1728 1081C1664 1081 1600 1081 1536 1081C1472 1081 1408 1081 1344 1081C1280 1081 1216 1081 1152 1081C1088 1081 1024 1081 960 1081C896 1081 832 1081 768 1081C704 1081 640 1081 576 1081C512 1081 448 1081 384 1081C320 1081 256 1081 192 1081C128 1081 64 1081 32 1081L0 1081Z" fill="#c1cdee"></path><path d="M0 952L32 947C64 942 128 932 192 929C256 926 320 930 384 917.5C448 905 512 876 576 862.2C640 848.3 704 849.7 768 851.7C832 853.7 896 856.3 960 857C1024 857.7 1088 856.3 1152 856.3C1216 856.3 1280 857.7 1344 858.3C1408 859 1472 859 1536 861.8C1600 864.7 1664 870.3 1728 881.8C1792 893.3 1856 910.7 1888 919.3L1920 928L1920 1081L1888 1081C1856 1081 1792 1081 1728 1081C1664 1081 1600 1081 1536 1081C1472 1081 1408 1081 1344 1081C1280 1081 1216 1081 1152 1081C1088 1081 1024 1081 960 1081C896 1081 832 1081 768 1081C704 1081 640 1081 576 1081C512 1081 448 1081 384 1081C320 1081 256 1081 192 1081C128 1081 64 1081 32 1081L0 1081Z" fill="#d6dbec"></path><path d="M0 979L32 983.3C64 987.7 128 996.3 192 995.5C256 994.7 320 984.3 384 973.3C448 962.3 512 950.7 576 949.7C640 948.7 704 958.3 768 968.2C832 978 896 988 960 982C1024 976 1088 954 1152 952.8C1216 951.7 1280 971.3 1344 976.5C1408 981.7 1472 972.3 1536 962.3C1600 952.3 1664 941.7 1728 942.2C1792 942.7 1856 954.3 1888 960.2L1920 966L1920 1081L1888 1081C1856 1081 1792 1081 1728 1081C1664 1081 1600 1081 1536 1081C1472 1081 1408 1081 1344 1081C1280 1081 1216 1081 1152 1081C1088 1081 1024 1081 960 1081C896 1081 832 1081 768 1081C704 1081 640 1081 576 1081C512 1081 448 1081 384 1081C320 1081 256 1081 192 1081C128 1081 64 1081 32 1081L0 1081Z" fill="#eaeaea"></path></svg>